# xmcd
#
# Track frame offsets: 
#        150
#        14235
#        28660
#        39887
#        68425
#        84352
#        112727
#        130012
#        163950
#        194360
#        215055
#
# Disc length: 3184 seconds
#
# Revision: 2
# Processed by: cddbd v1.5.2PL0 Copyright (c) Steve Scherf et al.
# Submitted via: ExactAudioCopy v1.0b4
#
DISCID=8e0c6e0b
DTITLE=Little Freddie King - Sing Sang Sung
DYEAR=2000
DGENRE=Blues
TTITLE0=Sing Sang Sung
TTITLE1=Do She Ever Think Of Me
TTITLE2=Soul Twist
TTITLE3=If You Want To Know The Blues You Got To Walk In My Shoes
TTITLE4=Bad Chicken
TTITLE5=Hobo Blues
TTITLE6=Hide Away
TTITLE7=Bucket Of Blood
TTITLE8=Rocky Mountian
TTITLE9=Honest I Do
TTITLE10=Three O'clock Blues
EXTD=
EXTT0=
EXTT1=
EXTT2=
EXTT3=
EXTT4=
EXTT5=
EXTT6=
EXTT7=
EXTT8=
EXTT9=
EXTT10=
PLAYORDER=
